HIERARCHY
ROOT Hips
{
	OFFSET 0.000000 0.000000 0.000000
	CHANNELS 6 Xposition Yposition Zposition Yrotation Xrotation Zrotation
	JOINT Chest
	{
		OFFSET 0.000000 -0.009281 11.569106
		CHANNELS 3 Yrotation Xrotation Zrotation
		JOINT Chest2
		{
			OFFSET -0.000000 0.016865 9.269641
			CHANNELS 3 Yrotation Xrotation Zrotation
			JOINT Chest3
			{
				OFFSET -0.000000 0.000001 8.374491
				CHANNELS 3 Yrotation Xrotation Zrotation
				JOINT Chest4
				{
					OFFSET -0.000000 0.000001 8.374493
					CHANNELS 3 Yrotation Xrotation Zrotation
					JOINT Neck
					{
						OFFSET -0.000000 0.000002 12.152554
						CHANNELS 3 Yrotation Xrotation Zrotation
						JOINT Head
						{
							OFFSET -0.000000 0.040101 7.802319
							CHANNELS 3 Yrotation Xrotation Zrotation
							End Site
							{
								OFFSET -0.000000 0.020947 14.853096
							}
						}
					}
					JOINT RightCollar
					{
						OFFSET 2.894404 0.000001 6.791374
						CHANNELS 3 Yrotation Xrotation Zrotation
						JOINT RightShoulder
						{
							OFFSET 13.574684 0.000001 0.000000
							CHANNELS 3 Yrotation Xrotation Zrotation
							JOINT RightElbow
							{
								OFFSET 23.923903 0.000002 0.000000
								CHANNELS 3 Yrotation Xrotation Zrotation
								JOINT RightWrist
								{
									OFFSET 19.846718 0.012767 0.000000
									CHANNELS 3 Yrotation Xrotation Zrotation
									End Site
									{
										OFFSET 14.973145 0.000001 0.000000
									}
								}
							}
						}
					}
					JOINT LeftCollar
					{
						OFFSET -2.894404 0.000001 6.791374
						CHANNELS 3 Yrotation Xrotation Zrotation
						JOINT LeftShoulder
						{
							OFFSET -13.574684 -0.000001 0.000000
							CHANNELS 3 Yrotation Xrotation Zrotation
							JOINT LeftElbow
							{
								OFFSET -23.923903 -0.000002 0.000000
								CHANNELS 3 Yrotation Xrotation Zrotation
								JOINT LeftWrist
								{
									OFFSET -19.846718 0.012763 0.000000
									CHANNELS 3 Yrotation Xrotation Zrotation
									End Site
									{
										OFFSET -14.973145 -0.000001 0.000000
									}
								}
							}
						}
					}
				}
			}
		}
	}
	JOINT RightHip
	{
		OFFSET 9.469263 0.004643 0.045487
		CHANNELS 3 Yrotation Xrotation Zrotation
		JOINT RightKnee
		{
			OFFSET 0.000000 0.002661 -40.478676
			CHANNELS 3 Yrotation Xrotation Zrotation
			JOINT RightAnkle
			{
				OFFSET 0.000000 0.049106 -35.224068
				CHANNELS 3 Yrotation Xrotation Zrotation
				JOINT RightToe
				{
					OFFSET -0.000001 12.539529 -6.151390
					CHANNELS 3 Yrotation Xrotation Zrotation
					End Site
					{
						OFFSET -0.000001 5.044994 -1.291870
					}
				}
			}
		}
	}
	JOINT LeftHip
	{
		OFFSET -9.469263 0.004641 0.045487
		CHANNELS 3 Yrotation Xrotation Zrotation
		JOINT LeftKnee
		{
			OFFSET 0.000000 0.002661 -40.478676
			CHANNELS 3 Yrotation Xrotation Zrotation
			JOINT LeftAnkle
			{
				OFFSET 0.000000 0.049106 -35.224068
				CHANNELS 3 Yrotation Xrotation Zrotation
				JOINT LeftToe
				{
					OFFSET -0.000001 12.539529 -6.151390
					CHANNELS 3 Yrotation Xrotation Zrotation
					End Site
					{
						OFFSET -0.000001 5.044994 -1.291870
					}
				}
			}
		}
	}
}
MOTION
Frames: 12
Frame Time: 0.016667
19.550463 -0.556043 82.347725 -3.954377 0.867217 -117.259130 -1.720353 -5.263680 2.838844 -0.807227 -2.306919 1.224355 -0.807227 -2.306919 1.224355 -0.600718 -1.731817 0.915094 1.757554 -11.787097 -4.422753 1.457081 14.269258 -7.713053 9.438409 4.371165 -2.170639 42.696998 -15.522506 -12.388746 -26.090228 -60.569202 85.807270 -42.730732 39.136031 51.131810 -7.757819 4.966354 -6.886139 -40.582672 -10.015386 19.130653 -1.626942 -64.472792 -61.546316 30.415601 16.069343 -74.928712 -5.265552 6.123787 6.372492 -2.026971 -23.652395 4.974305 4.340108 12.245804 7.779596 1.279342 1.512209 0.004104 -1.082485 0.921884 -6.750747 3.542994 -3.232421 -8.403249 -5.901750 0.832604 -0.056247 1.187160 -1.664483 0.239052 
19.683004 -0.369684 82.304939 -4.016853 0.876471 -117.185883 -1.636218 -5.150347 2.795400 -0.828148 -2.292421 1.218898 -0.828148 -2.292421 1.218903 -0.616456 -1.720979 0.910947 1.657710 -11.934549 -4.356697 1.302032 13.992834 -7.624578 9.445382 4.557778 -2.090007 42.606273 -15.476328 -12.735748 -25.592905 -60.711236 85.500813 -42.709497 38.892596 51.025639 -7.839080 5.145435 -6.800977 -40.479044 -9.998822 19.270417 -1.503079 -64.616936 -61.745675 30.363046 15.980314 -74.922476 -5.549156 6.616211 7.400647 -0.247182 -24.846893 2.655911 2.397509 12.194949 6.808572 1.918889 1.737859 0.047640 -0.797617 0.917295 -5.584332 3.145831 -3.579053 -5.056898 -4.975596 1.198893 -0.231402 0.405437 -1.660141 0.258197 
19.816378 -0.279539 82.345924 -4.204767 0.801540 -117.272668 -1.632616 -5.191377 2.910414 -0.824692 -2.260227 1.206984 -0.824691 -2.260227 1.206985 -0.613975 -1.696809 0.902071 1.555527 -12.142726 -4.282617 1.149113 13.603924 -7.519494 9.487654 4.861751 -2.094404 42.449605 -15.454638 -13.046921 -25.159268 -60.966644 85.327771 -42.639194 38.701092 50.955779 -7.869826 5.183475 -6.804925 -40.433719 -9.758021 19.376282 -1.637941 -64.786516 -61.541691 30.287753 15.882167 -74.948690 -5.794337 6.904711 8.373593 2.129943 -25.808534 -1.613377 0.667242 11.926121 6.419775 2.198684 1.907707 0.070308 -0.250596 0.459234 -2.980987 2.753712 -3.586318 -2.148130 -3.886206 1.844287 -0.124097 -0.478254 -1.928412 0.298829 
20.176414 -0.722729 82.389702 -4.586620 0.375085 -117.576925 -1.459572 -5.538734 3.282904 -0.805883 -2.239933 1.182545 -0.805883 -2.239934 1.182546 -0.600002 -1.681520 0.883842 1.461431 -12.376466 -4.215020 1.010215 13.167783 -7.422312 9.555885 5.016654 -2.008056 42.375224 -15.312190 -13.314003 -24.906273 -61.083932 85.203475 -42.539590 38.630891 50.958388 -7.866561 5.236039 -6.694710 -40.488982 -9.787874 19.380735 -1.825979 -64.877597 -61.231826 30.220783 15.931037 -74.943779 -5.422925 6.418927 8.447829 4.075794 -26.366765 -6.511808 -0.866045 11.701305 6.492743 2.246209 2.077891 -0.000921 0.342513 -0.239201 1.037788 2.394053 -3.750180 -0.569556 -2.586588 2.414927 0.553662 -1.176735 -2.060508 0.499323 
20.703903 -0.969446 82.456131 -4.799243 0.226607 -117.473475 -1.413898 -5.636232 3.304029 -0.781147 -2.220838 1.141646 -0.781147 -2.220838 1.141643 -0.581638 -1.667099 0.853289 1.384765 -12.596042 -4.168146 0.895127 12.758109 -7.357627 9.571027 5.000553 -1.988781 42.446166 -15.209802 -13.421520 -24.887649 -60.969561 85.123992 -42.442112 38.641867 51.004100 -7.835489 5.037946 -6.707264 -40.598084 -9.836408 19.303001 -2.033416 -64.841288 -60.955695 30.225202 16.125684 -74.910892 -5.441606 5.830160 6.150780 5.333820 -26.374938 -10.052801 -2.141370 11.455598 6.293776 2.167576 2.078199 -0.012223 0.916343 -0.913768 5.203985 2.147064 -3.898010 0.362973 -1.565657 2.741627 1.776103 -1.732131 -1.790478 0.376849 
21.413088 -1.410646 82.546974 -4.915142 -0.000361 -117.316244 -1.244941 -5.698685 3.321310 -0.749972 -2.186401 1.086964 -0.749972 -2.186402 1.086966 -0.558523 -1.641145 0.812441 1.319347 -12.802856 -4.138186 0.793816 12.372117 -7.320738 9.551659 4.925935 -2.054574 42.547011 -15.199773 -13.420607 -25.039429 -60.777243 85.114464 -42.347545 38.676783 51.062132 -7.848295 4.823615 -6.781776 -40.676454 -10.007323 19.290194 -2.266675 -64.764270 -60.725074 30.297630 16.354514 -74.859679 -5.355280 4.774829 2.277476 5.897558 -25.681716 -11.926896 -3.359697 11.065400 5.575271 2.771612 3.317529 0.015950 1.343370 -1.633234 9.134966 2.091077 -3.888339 1.191090 -0.883023 2.850429 2.472175 -1.937488 -1.420477 0.412255 
22.245195 -1.753483 82.628876 -4.958937 -0.127801 -117.057572 -1.120985 -5.651414 3.261234 -0.710179 -2.145934 1.033484 -0.710179 -2.145934 1.033489 -0.528943 -1.610660 0.772529 1.259586 -12.986083 -4.126425 0.694676 12.029549 -7.316711 9.539140 4.906545 -2.084351 42.525362 -15.170950 -13.444664 -25.184521 -60.738065 85.170164 -42.253872 38.705401 51.120575 -7.898386 4.744064 -6.770814 -40.701900 -10.254477 19.311472 -2.528993 -64.805805 -60.481277 30.371744 16.520599 -74.784697 -5.392987 3.622428 -2.145428 6.206925 -24.662524 -13.148101 -4.332520 10.632469 4.523171 3.347611 4.267741 0.084574 1.693882 -2.398774 12.221045 2.037738 -3.786897 1.800748 -0.370241 2.643579 3.369612 -2.089014 -0.764897 0.229105 
23.062860 -1.981632 82.673752 -4.438459 0.086995 -116.281402 -1.016339 -4.988998 2.657577 -0.663085 -2.126960 1.002184 -0.663085 -2.126959 1.002182 -0.493768 -1.596315 0.749238 1.208958 -13.108345 -4.132324 0.602635 11.799898 -7.344389 9.531936 5.013006 -2.065513 42.362206 -15.145921 -13.485626 -25.203888 -60.887708 85.249920 -42.200710 38.714421 51.152318 -7.946697 4.703857 -6.756466 -40.697303 -10.330349 19.306751 -2.761454 -64.944294 -60.246565 30.449438 16.598367 -74.672696 -5.513966 3.174775 -6.775636 6.379157 -23.406343 -14.491976 -4.960210 9.886753 3.499286 3.898340 5.048952 0.184826 1.879975 -2.246803 13.451801 1.836930 -3.781864 2.281403 0.057352 2.028787 4.440548 -2.003429 0.083274 0.084830 
24.046738 -2.115926 82.709869 -4.456312 0.183225 -116.012266 -1.111083 -4.914022 2.532551 -0.621108 -2.137825 1.008175 -0.621108 -2.137826 1.008174 -0.462250 -1.604401 0.753871 1.178299 -13.156722 -4.153170 0.538608 11.707809 -7.394726 9.490720 5.054434 -2.018669 42.180967 -15.145909 -13.405476 -25.108214 -61.036592 85.296222 -42.212768 38.725397 51.134153 -7.942264 4.679953 -6.732581 -40.742714 -10.303933 19.253260 -2.925666 -65.016994 -60.055299 30.509048 16.596318 -74.559957 -5.748662 2.608064 -10.000140 6.476385 -22.210732 -16.015272 -5.319573 8.971523 2.501500 4.426766 5.579762 0.272408 1.800320 -2.817020 13.573474 1.498249 -3.917861 2.824029 0.233099 1.884471 5.431998 -1.672495 0.707867 0.008240 
24.917572 -1.969899 82.833839 -4.452140 0.222420 -115.969946 -1.147863 -4.882280 2.572221 -0.604877 -2.172312 1.048351 -0.604877 -2.172312 1.048351 -0.449877 -1.630278 0.784019 1.174729 -13.153215 -4.175811 0.522451 11.713310 -7.439239 9.393248 4.871913 -1.985479 42.100162 -15.202237 -13.121241 -24.958293 -61.046482 85.257119 -42.293757 38.731424 51.070851 -7.917262 4.718593 -6.708020 -40.814468 -10.281497 19.218699 -3.045457 -64.961246 -59.916926 30.510616 16.552286 -74.522650 -5.694153 2.106996 -12.012805 6.374732 -21.495901 -17.157707 -5.548164 8.913487 1.331453 5.006635 5.608255 0.314612 1.644511 -3.185320 12.516150 1.026590 -4.279692 3.389532 0.378710 2.081005 6.900261 -1.191428 1.007676 -0.053908 
25.659973 -1.602012 82.850418 -4.496760 0.439626 -116.067016 -1.320544 -4.837711 2.685768 -0.635837 -2.218833 1.105016 -0.635837 -2.218833 1.105014 -0.472807 -1.665282 0.826349 1.198334 -13.125646 -4.185354 0.561820 11.765356 -7.448698 9.295005 4.630621 -1.971812 42.124307 -15.356531 -12.774395 -24.808700 -60.975045 85.149885 -42.423169 38.693530 50.973715 -7.870381 4.773013 -6.693479 -40.826213 -10.178271 19.190764 -2.981655 -64.890171 -60.005411 30.474497 16.522636 -74.582039 -5.970405 1.703757 -12.827994 5.921164 -20.985934 -17.298089 -5.502874 8.781194 0.013100 5.720850 5.599253 0.385780 1.214119 -3.203493 10.673366 0.527055 -5.012393 4.439677 0.332711 2.466261 8.184321 -0.575117 1.231827 -0.085357 
26.190542 -1.046090 82.831291 -4.580744 0.853586 -116.097889 -1.620842 -4.807907 2.752558 -0.713740 -2.244779 1.150685 -0.713740 -2.244779 1.150686 -0.531010 -1.684937 0.860284 1.237118 -13.084399 -4.185436 0.633100 11.843904 -7.434457 9.262074 4.457914 -1.990145 42.176691 -15.506831 -12.485505 -24.605786 -60.971965 84.984595 -42.559913 38.603451 50.856031 -7.791270 4.803356 -6.722923 -40.726540 -9.971258 19.149740 -2.656800 -64.884755 -60.388325 30.374705 16.552012 -74.807264 -6.674570 1.691205 -12.288658 5.351946 -20.952901 -16.421347 -4.509963 8.992960 -1.974650 4.514983 3.980505 0.257074 0.484007 -2.898751 8.575709 0.098073 -5.870124 5.826812 0.223068 2.829672 9.004724 -0.001650 1.388515 -0.065974 
